<svg width="20" height="20" viewBox="0 0 20 20" fill="none" xmlns="http://www.w3.org/2000/svg">
<path d="M0.75 6C0.75 4.65739 1.20003 3.32158 1.96701 2.33546C2.72768 1.35746 3.77318 0.75 5 0.75C6.39107 0.75 7.04657 0.976402 7.59646 1.19636C7.65676 1.22048 7.71723 1.24523 7.77835 1.27025C8.33692 1.49889 8.95037 1.75 10 1.75C11.0496 1.75 11.6631 1.49889 12.2217 1.27025C12.2828 1.24523 12.3432 1.22048 12.4035 1.19636C12.9534 0.976402 13.6089 0.75 15 0.75C16.2268 0.75 17.2723 1.35746 18.033 2.33546C18.8 3.32158 19.25 4.65739 19.25 6C19.25 6.9521 19.0211 8.11923 18.6644 9.17644C18.2998 10.2568 17.8447 11.0946 17.4697 11.4697C17.2396 11.6997 17.0689 12.0296 16.9371 12.3276C16.7957 12.6473 16.658 13.0292 16.5229 13.4347C16.3929 13.8245 16.2598 14.2531 16.1243 14.6894L16.106 14.7482C15.9632 15.2079 15.817 15.6774 15.6635 16.1378C15.3528 17.0699 15.0289 17.9131 14.6797 18.5137C14.5053 18.8137 14.3463 19.0145 14.2108 19.1331C14.0807 19.2471 14.015 19.25 14 19.25C13.099 19.25 12.6506 18.9246 12.3676 18.4942C12.0417 17.9986 11.8829 17.2804 11.7935 16.4222C11.7581 16.0834 11.7353 15.7466 11.7124 15.4084C11.7069 15.3266 11.7014 15.2447 11.6956 15.1626C11.6671 14.7542 11.6336 14.3359 11.5692 13.9653C11.5072 13.6083 11.4028 13.2049 11.1791 12.8776C10.9222 12.5018 10.5211 12.25 10 12.25C9.47893 12.25 9.07779 12.5018 8.82092 12.8776C8.59723 13.2049 8.49282 13.6083 8.43077 13.9653C8.36635 14.3359 8.33287 14.7542 8.30436 15.1626C8.29863 15.2447 8.29309 15.3266 8.28755 15.4084C8.26467 15.7466 8.24188 16.0834 8.20654 16.4222C8.11705 17.2804 7.95829 17.9986 7.63242 18.4942C7.34938 18.9246 6.90098 19.25 6 19.25C5.98505 19.25 5.91927 19.2471 5.78915 19.1331C5.65375 19.0145 5.49469 18.8137 5.32026 18.5137C4.9711 17.9131 4.64719 17.0699 4.33651 16.1378C4.18304 15.6774 4.03676 15.2079 3.89397 14.7482L3.87567 14.6893C3.74017 14.253 3.60707 13.8245 3.47714 13.4347C3.34198 13.0292 3.20426 12.6473 3.06289 12.3276C2.93113 12.0296 2.76038 11.6997 2.53033 11.4697C2.15531 11.0946 1.7002 10.2568 1.33563 9.17644C0.978862 8.11923 0.75 6.9521 0.75 6Z" fill="white" stroke="#0D6EFD" stroke-width="1.5"/>
</svg>
